<svg xmlns="http://www.w3.org/2000/svg" xmlns:xlink="http://www.w3.org/1999/xlink" width="500" zoomAndPan="magnify" viewBox="0 0 375 374.999991" height="500" preserveAspectRatio="xMidYMid meet" version="1.0"><defs><g/><clipPath id="3efb22f0ad"><path d="M 15.394531 112.5 L 143.644531 112.5 L 143.644531 271.5 L 15.394531 271.5 Z M 15.394531 112.5 " clip-rule="nonzero"/></clipPath></defs><g clip-path="url(#3efb22f0ad)"><path fill="#ffffff" d="M 143.160156 121.929688 C 142.992188 121.824219 142.785156 121.820312 142.59375 121.847656 C 141.195312 122.035156 140.25 123.515625 138.859375 123.75 C 138.929688 123.261719 139.128906 122.800781 139.324219 122.351562 C 140.554688 119.515625 141.828125 116.703125 143.148438 113.910156 C 143.34375 113.492188 143.496094 112.890625 143.101562 112.648438 C 142.863281 112.5 142.539062 112.59375 142.335938 112.785156 C 142.128906 112.980469 142.019531 113.246094 141.902344 113.5 C 141.160156 115.148438 140.085938 116.621094 139.019531 118.082031 C 138.351562 118.996094 137.679688 119.914062 136.851562 120.679688 C 135.863281 121.589844 134.667969 122.265625 133.726562 123.226562 C 133.128906 123.828125 132.644531 124.535156 132.078125 125.164062 C 130.8125 126.5625 129.128906 127.574219 127.296875 128.027344 C 122.679688 129.167969 117.941406 130.035156 113.28125 130.996094 C 111.308594 131.402344 109.320312 131.8125 107.476562 132.625 C 105.503906 133.496094 103.734375 134.824219 102.34375 136.476562 C 100.3125 138.890625 96.320312 138.296875 93.59375 139.890625 C 92.875 140.308594 92.203125 140.816406 91.425781 141.109375 C 90.582031 141.425781 89.664062 141.46875 88.769531 141.589844 C 85.492188 142.027344 82.375 143.578125 80.046875 145.925781 C 79.691406 144.144531 80.558594 142.347656 80.269531 140.558594 C 80.242188 140.367188 80.191406 140.175781 80.074219 140.027344 C 79.976562 139.90625 79.835938 139.820312 79.746094 139.691406 C 79.617188 139.507812 79.609375 139.265625 79.605469 139.035156 C 79.554688 136.824219 79.113281 134.621094 78.308594 132.558594 C 78.132812 132.101562 77.933594 131.644531 77.65625 131.238281 C 77.441406 130.921875 77.183594 130.636719 76.910156 130.371094 C 74.984375 128.503906 71.675781 127.550781 68.992188 127.523438 C 66.5625 127.5 64.148438 128.679688 62.671875 130.613281 C 60.714844 133.1875 60.527344 136.644531 60.363281 139.875 C 60.351562 140.09375 60.339844 140.3125 60.277344 140.523438 C 60.203125 140.773438 60.0625 141 59.957031 141.242188 C 59.625 142.03125 59.742188 142.9375 59.929688 143.773438 C 60.183594 144.898438 60.558594 145.992188 61.039062 147.035156 C 61.136719 147.25 61.257812 147.476562 61.46875 147.582031 C 61.625 147.65625 61.808594 147.652344 61.972656 147.707031 C 62.386719 147.84375 62.597656 148.316406 62.621094 148.75 C 62.644531 149.1875 62.535156 149.621094 62.542969 150.054688 C 62.554688 150.894531 62.988281 151.660156 63.34375 152.421875 C 63.699219 153.179688 63.992188 154.054688 63.710938 154.84375 C 63.40625 155.710938 62.472656 156.289062 62.324219 157.191406 C 61.65625 157.769531 60.839844 158.335938 60.171875 158.910156 C 59.746094 159.28125 59.316406 159.652344 58.925781 160.0625 C 58.5625 160.449219 58.238281 160.863281 57.910156 161.28125 L 54.992188 165.003906 C 54.125 166.113281 52.933594 168.070312 52.355469 169.355469 C 52.34375 169.371094 52.335938 169.386719 52.328125 169.40625 C 51.023438 172.292969 50.375 175.433594 50.402344 178.601562 C 50.425781 181.542969 50.222656 184.484375 49.800781 187.394531 C 49.511719 189.394531 49.765625 191.6875 48.695312 193.402344 C 48.3125 194.019531 47.761719 194.515625 47.234375 195.015625 C 44.316406 197.765625 41.757812 200.90625 39.652344 204.320312 C 37.867188 207.214844 34.988281 209.496094 33.453125 212.535156 C 33.03125 213.363281 32.664062 214.230469 32.113281 214.984375 C 31.777344 215.441406 31.375 215.855469 31.097656 216.351562 C 30.742188 217 30.628906 217.75 30.496094 218.476562 C 30.179688 220.265625 29.738281 222.035156 29.183594 223.765625 C 28.210938 226.785156 26.886719 229.753906 26.476562 232.898438 C 26.347656 233.871094 26.296875 234.851562 26.242188 235.832031 C 25.902344 242.101562 25.566406 248.367188 25.226562 254.636719 C 25.390625 254.769531 25.15625 255.015625 25 255.152344 C 24.847656 255.292969 24.636719 255.355469 24.464844 255.472656 C 23.988281 255.792969 23.894531 256.449219 23.527344 256.890625 C 23.03125 257.496094 22.109375 257.605469 21.589844 258.195312 C 21.164062 258.683594 21.105469 259.382812 20.960938 260.015625 C 20.433594 262.382812 18.566406 264.183594 16.8125 265.863281 C 16.3125 266.34375 15.789062 266.863281 15.617188 267.542969 C 15.402344 268.40625 15.816406 269.300781 15.847656 270.191406 C 15.851562 270.34375 15.851562 270.507812 15.933594 270.636719 C 15.953125 270.664062 15.976562 270.6875 16 270.710938 C 16.371094 271.050781 16.898438 271.167969 17.398438 271.160156 L 24.234375 271.050781 C 24.820312 271.042969 25.414062 271.03125 25.964844 270.839844 C 26.867188 270.53125 27.542969 269.785156 28.390625 269.347656 C 29.414062 268.824219 30.605469 268.785156 31.710938 268.472656 C 32.8125 268.160156 33.953125 267.386719 34.050781 266.246094 C 34.113281 265.511719 33.730469 264.824219 33.417969 264.15625 C 32.574219 262.339844 32.203125 260.308594 32.351562 258.3125 C 32.375 257.976562 32.414062 257.613281 32.246094 257.320312 C 32.121094 257.097656 31.902344 256.945312 31.757812 256.734375 C 31.519531 256.382812 31.53125 255.921875 31.570312 255.5 C 32.050781 250.375 35.390625 246.03125 37.28125 241.246094 C 39.085938 236.683594 38.597656 231.449219 39.523438 226.632812 C 39.640625 226.015625 39.78125 225.398438 40.074219 224.84375 C 40.109375 224.886719 40.089844 224.855469 40.074219 224.804688 C 40.054688 224.75 40.101562 224.695312 40.144531 224.660156 C 42.128906 222.933594 44.113281 221.207031 46.097656 219.480469 C 46.605469 219.039062 47.148438 218.578125 47.8125 218.460938 C 49.023438 218.242188 50.058594 219.195312 51.167969 219.78125 C 51.726562 220.074219 52.273438 220.84375 52.386719 221.464844 C 53.144531 225.625 53.753906 229.8125 54.210938 234.019531 C 54.277344 234.636719 54.339844 235.257812 54.273438 235.875 C 54.105469 237.4375 53.105469 238.945312 53.472656 240.472656 C 50.886719 240.570312 48.335938 242.480469 47.683594 244.984375 C 47.457031 245.847656 47.425781 246.75 47.457031 247.640625 C 47.484375 248.394531 47.554688 249.160156 47.828125 249.863281 C 48.054688 250.464844 48.421875 251 48.804688 251.519531 C 49.785156 252.851562 50.890625 254.09375 52.101562 255.21875 C 51.484375 256.832031 51.238281 258.847656 51.789062 260.484375 C 52.160156 261.574219 52.742188 262.582031 53.460938 263.484375 C 54.097656 264.28125 55.058594 264.753906 56.082031 264.753906 L 61.902344 264.753906 C 62.875 264.753906 63.804688 264.335938 64.433594 263.59375 C 64.894531 263.046875 65.300781 262.464844 65.609375 261.792969 C 66.632812 259.59375 66.347656 256.84375 64.898438 254.902344 C 66.214844 253.34375 67.648438 251.570312 68.4375 249.6875 C 69.230469 247.808594 69.421875 245.574219 68.484375 243.765625 C 68.058594 242.941406 67.425781 242.25 66.800781 241.570312 C 66.742188 241.019531 66.574219 240.542969 66.515625 239.992188 C 66.453125 239.398438 66.386719 238.792969 66.15625 238.238281 C 65.628906 236.980469 64.359375 236.222656 63.152344 235.597656 C 62.445312 235.230469 61.671875 234.308594 61.390625 233.5625 C 61.214844 233.09375 60.910156 232.605469 60.871094 232.144531 C 60.703125 230.023438 60.535156 227.90625 60.363281 225.785156 C 60.308594 225.078125 60.25 224.367188 60.273438 223.65625 C 60.304688 222.53125 60.535156 221.425781 60.6875 220.3125 C 61.023438 217.875 60.992188 215.390625 60.59375 212.964844 C 60.550781 212.710938 60.507812 212.449219 60.578125 212.203125 C 60.644531 211.960938 60.816406 211.761719 60.980469 211.570312 L 63.132812 209.105469 C 63.632812 208.53125 64.671875 208.0625 65.4375 208.054688 C 68.625 208.019531 71.90625 209.445312 74.929688 208.417969 C 75.679688 208.164062 76.394531 207.761719 77.179688 207.691406 C 77.96875 207.617188 78.886719 208.027344 79.03125 208.804688 C 80.757812 209.78125 81.953125 211.335938 83.191406 212.890625 C 84.203125 214.15625 85.210938 215.425781 86.222656 216.691406 C 86.792969 217.410156 87.503906 218.195312 88.421875 218.175781 C 88.953125 218.164062 89.4375 217.871094 89.878906 217.574219 C 91.105469 216.742188 92.238281 215.78125 93.257812 214.707031 C 95.390625 215.917969 97.53125 217.046875 99.664062 218.257812 C 100.320312 218.628906 100.980469 219.003906 101.523438 219.527344 C 102.574219 220.53125 103.085938 221.992188 103.25 223.4375 C 103.414062 224.878906 103.269531 226.339844 103.199219 227.789062 C 103.113281 229.574219 103.136719 231.367188 103.269531 233.148438 C 103.390625 234.730469 103.601562 236.324219 104.121094 237.824219 C 104.496094 238.898438 105.019531 239.910156 105.496094 240.941406 C 107.457031 245.210938 108.558594 249.875 108.707031 254.570312 C 108.773438 256.617188 107.730469 258.585938 107.609375 260.628906 C 107.566406 261.359375 107.691406 262.097656 107.578125 262.820312 C 107.414062 263.882812 106.746094 264.84375 106.746094 265.917969 C 106.75 266.320312 106.867188 266.75 107.1875 266.992188 C 107.390625 267.144531 107.648438 267.203125 107.898438 267.253906 C 109.09375 267.515625 110.363281 267.863281 111.167969 268.785156 C 111.386719 269.035156 111.566406 269.320312 111.808594 269.546875 C 112.375 270.066406 113.195312 270.183594 113.960938 270.253906 C 116.433594 270.484375 118.925781 270.476562 121.398438 270.246094 C 122.195312 270.171875 123.15625 269.941406 123.390625 269.175781 C 123.464844 268.941406 123.449219 268.6875 123.433594 268.445312 C 123.335938 266.878906 123.128906 265.222656 122.144531 264.007812 C 121.457031 263.160156 120.460938 262.617188 119.734375 261.808594 C 118.816406 260.789062 118.394531 259.433594 118.007812 258.121094 C 117.832031 257.527344 117.648438 256.917969 117.265625 256.4375 C 117.070312 256.195312 116.832031 255.992188 116.640625 255.75 C 116.1875 255.175781 116.015625 254.410156 115.496094 253.921875 C 115.371094 253.566406 115.265625 253.265625 115.144531 252.910156 C 115.304688 251.589844 115.269531 250.183594 115.285156 248.855469 C 115.296875 247.5625 115.242188 246.269531 115.230469 244.980469 C 115.199219 242.078125 115.375 239.183594 115.550781 236.289062 C 115.875 230.960938 115.085938 225.636719 113.3125 220.605469 C 112.542969 218.429688 112.078125 216.175781 112.121094 213.835938 C 112.136719 212.957031 112 212.070312 111.636719 211.265625 C 109.921875 207.449219 106.546875 204.8125 104.53125 201.148438 C 103.183594 198.703125 100.265625 197.445312 98.609375 195.199219 C 98.15625 194.578125 97.746094 193.929688 97.261719 193.332031 C 95.6875 191.390625 93.3125 189.976562 92.542969 187.597656 C 92.433594 187.265625 92.359375 186.917969 92.191406 186.609375 C 91.625 185.570312 90.257812 185.347656 89.078125 185.246094 C 89.019531 185.0625 88.691406 185.074219 88.503906 185.035156 C 88.253906 184.980469 88.207031 184.648438 88.214844 184.394531 C 88.289062 182.074219 88.410156 179.757812 88.578125 177.441406 C 88.71875 175.53125 88.886719 173.625 88.898438 171.710938 C 88.90625 169.71875 88.742188 167.730469 88.578125 165.746094 C 88.210938 161.296875 89.9375 157.203125 90.328125 152.753906 C 90.902344 152.269531 91.679688 152.339844 92.40625 152.152344 C 95.171875 151.425781 97.332031 149.34375 99.691406 147.726562 C 102.328125 145.914062 105.292969 144.652344 108.234375 143.402344 C 114.207031 140.867188 119.949219 137.714844 125.40625 134.203125 C 126.003906 133.816406 126.605469 133.4375 127.230469 133.09375 C 127.960938 132.695312 128.71875 132.351562 129.472656 132.007812 C 130.78125 131.414062 132.089844 130.820312 133.398438 130.222656 C 134.121094 129.894531 134.839844 129.839844 135.597656 129.605469 C 137.722656 128.953125 138.867188 126.664062 140.714844 125.421875 C 141.28125 125.039062 141.917969 124.761719 142.460938 124.34375 C 143 123.925781 143.460938 123.320312 143.472656 122.636719 C 143.476562 122.367188 143.390625 122.070312 143.160156 121.929688 Z M 60.492188 245.90625 C 60.582031 245.839844 60.648438 245.746094 60.738281 245.683594 C 60.988281 245.511719 61.328125 245.59375 61.59375 245.738281 C 61.855469 245.882812 62.097656 246.085938 62.386719 246.15625 C 62.839844 246.261719 63.3125 246.015625 63.609375 245.660156 C 63.90625 245.304688 64.058594 244.855469 64.207031 244.414062 C 64.707031 244.625 65.078125 245.085938 65.277344 245.597656 C 65.472656 246.105469 65.515625 246.660156 65.503906 247.207031 C 65.496094 247.71875 65.441406 248.238281 65.277344 248.726562 C 65.003906 249.527344 64.449219 250.195312 63.910156 250.84375 C 63.601562 251.214844 63.292969 251.582031 62.988281 251.949219 C 61.796875 250.746094 60.046875 250.15625 58.355469 250.277344 C 56.667969 250.402344 55.058594 251.214844 53.875 252.425781 C 53.121094 251.472656 52.363281 250.519531 51.609375 249.566406 C 51.285156 249.160156 50.957031 248.75 50.761719 248.269531 C 50.378906 247.335938 50.546875 246.222656 51.113281 245.390625 C 51.566406 244.730469 52.421875 244.023438 53.246094 243.898438 C 53.753906 243.820312 53.734375 244.039062 54.007812 244.445312 C 54.265625 244.832031 54.574219 245.179688 54.925781 245.476562 C 55.242188 245.746094 55.75 245.964844 56.035156 245.664062 C 56.109375 245.585938 56.152344 245.484375 56.234375 245.414062 C 56.433594 245.246094 56.738281 245.351562 56.96875 245.480469 C 57.390625 245.707031 57.90625 245.976562 58.3125 245.722656 C 58.421875 245.65625 58.507812 245.554688 58.628906 245.507812 C 58.921875 245.394531 59.210938 245.65625 59.472656 245.832031 C 59.777344 246.035156 60.203125 246.128906 60.492188 245.90625 Z M 60.492188 245.90625 " fill-opacity="1" fill-rule="nonzero"/></g><g fill="#ffffff" fill-opacity="1"><g transform="translate(150.795083, 166.346466)"><g><path d="M -3.25 0 L 7.453125 -46.40625 L 26.03125 -46.40625 L 23.984375 -37.390625 L 14.75 -37.390625 L 13.015625 -29.984375 L 21.765625 -29.984375 L 19.71875 -21.078125 L 10.96875 -21.078125 L 6.09375 0 Z M -3.25 0 "/></g></g></g><g fill="#ffffff" fill-opacity="1"><g transform="translate(172.350441, 166.346466)"><g><path d="M -3.6875 0 L 7.015625 -46.40625 L 15.984375 -46.40625 L 5.28125 0 Z M -3.6875 0 "/></g></g></g><g fill="#ffffff" fill-opacity="1"><g transform="translate(184.613757, 166.346466)"><g><path d="M 0.703125 0 L 9.34375 -37.5 L 3.84375 -37.5 L 5.890625 -46.40625 L 26.203125 -46.40625 L 24.15625 -37.5 L 18.640625 -37.5 L 10 0 Z M 0.703125 0 "/></g></g></g><g fill="#ffffff" fill-opacity="1"><g transform="translate(206.007044, 166.346466)"><g><path d="M -3.25 0 L 7.453125 -46.40625 L 17.015625 -46.40625 L 16.140625 -24.203125 L 21.28125 -46.40625 L 30.25 -46.40625 L 19.546875 0 L 10.46875 0 L 11.171875 -23.234375 L 5.828125 0 Z M -3.25 0 "/></g></g></g><g fill="#ffffff" fill-opacity="1"><g transform="translate(232.910717, 166.346466)"><g><path d="M -3.25 0 L 7.453125 -46.40625 L 26.03125 -46.40625 L 23.984375 -37.4375 L 14.84375 -37.4375 L 12.75 -28.421875 L 21.5 -28.421875 L 19.5 -19.671875 L 10.75 -19.671875 L 8.265625 -9.015625 L 17.984375 -9.015625 L 15.9375 0 Z M -3.25 0 "/></g></g></g><g fill="#ffffff" fill-opacity="1"><g transform="translate(255.168376, 166.346466)"><g><path d="M 7.671875 0.4375 C 3.453125 0.4375 0.648438 -0.601562 -0.734375 -2.6875 C -2.117188 -4.78125 -2.273438 -8.15625 -1.203125 -12.8125 L -0.171875 -17.34375 L 8.96875 -17.34375 L 7.609375 -11.5625 C 7.066406 -9.257812 7.535156 -8.109375 9.015625 -8.109375 C 9.847656 -8.109375 10.488281 -8.347656 10.9375 -8.828125 C 11.382812 -9.316406 11.734375 -10.140625 11.984375 -11.296875 C 12.347656 -12.804688 12.457031 -14.054688 12.3125 -15.046875 C 12.164062 -16.035156 11.894531 -16.863281 11.5 -17.53125 C 11.101562 -18.195312 10.347656 -19.234375 9.234375 -20.640625 L 6.15625 -24.640625 C 3.78125 -27.660156 3.003906 -31.007812 3.828125 -34.6875 C 4.734375 -38.644531 6.335938 -41.660156 8.640625 -43.734375 C 10.941406 -45.804688 13.84375 -46.84375 17.34375 -46.84375 C 21.519531 -46.84375 24.273438 -45.734375 25.609375 -43.515625 C 26.941406 -41.304688 27.046875 -37.84375 25.921875 -33.125 L 16.46875 -33.125 L 17.171875 -36.3125 C 17.316406 -36.925781 17.265625 -37.410156 17.015625 -37.765625 C 16.765625 -38.128906 16.332031 -38.3125 15.71875 -38.3125 C 15 -38.3125 14.40625 -38.113281 13.9375 -37.71875 C 13.46875 -37.320312 13.160156 -36.78125 13.015625 -36.09375 C 12.648438 -34.582031 13.15625 -33.015625 14.53125 -31.390625 L 18.734375 -26.203125 C 19.710938 -24.984375 20.488281 -23.820312 21.0625 -22.71875 C 21.632812 -21.625 22.003906 -20.328125 22.171875 -18.828125 C 22.335938 -17.335938 22.1875 -15.5625 21.71875 -13.5 C 20.632812 -8.925781 18.984375 -5.457031 16.765625 -3.09375 C 14.554688 -0.738281 11.523438 0.4375 7.671875 0.4375 Z M 7.671875 0.4375 "/></g></g></g><g fill="#ffffff" fill-opacity="1"><g transform="translate(280.073179, 166.346466)"><g><path d="M 7.671875 0.4375 C 3.453125 0.4375 0.648438 -0.601562 -0.734375 -2.6875 C -2.117188 -4.78125 -2.273438 -8.15625 -1.203125 -12.8125 L -0.171875 -17.34375 L 8.96875 -17.34375 L 7.609375 -11.5625 C 7.066406 -9.257812 7.535156 -8.109375 9.015625 -8.109375 C 9.847656 -8.109375 10.488281 -8.347656 10.9375 -8.828125 C 11.382812 -9.316406 11.734375 -10.140625 11.984375 -11.296875 C 12.347656 -12.804688 12.457031 -14.054688 12.3125 -15.046875 C 12.164062 -16.035156 11.894531 -16.863281 11.5 -17.53125 C 11.101562 -18.195312 10.347656 -19.234375 9.234375 -20.640625 L 6.15625 -24.640625 C 3.78125 -27.660156 3.003906 -31.007812 3.828125 -34.6875 C 4.734375 -38.644531 6.335938 -41.660156 8.640625 -43.734375 C 10.941406 -45.804688 13.84375 -46.84375 17.34375 -46.84375 C 21.519531 -46.84375 24.273438 -45.734375 25.609375 -43.515625 C 26.941406 -41.304688 27.046875 -37.84375 25.921875 -33.125 L 16.46875 -33.125 L 17.171875 -36.3125 C 17.316406 -36.925781 17.265625 -37.410156 17.015625 -37.765625 C 16.765625 -38.128906 16.332031 -38.3125 15.71875 -38.3125 C 15 -38.3125 14.40625 -38.113281 13.9375 -37.71875 C 13.46875 -37.320312 13.160156 -36.78125 13.015625 -36.09375 C 12.648438 -34.582031 13.15625 -33.015625 14.53125 -31.390625 L 18.734375 -26.203125 C 19.710938 -24.984375 20.488281 -23.820312 21.0625 -22.71875 C 21.632812 -21.625 22.003906 -20.328125 22.171875 -18.828125 C 22.335938 -17.335938 22.1875 -15.5625 21.71875 -13.5 C 20.632812 -8.925781 18.984375 -5.457031 16.765625 -3.09375 C 14.554688 -0.738281 11.523438 0.4375 7.671875 0.4375 Z M 7.671875 0.4375 "/></g></g></g><g fill="#ffffff" fill-opacity="1"><g transform="translate(171.748207, 241.346461)"><g><path d="M 7.453125 -46.40625 L 20.25 -46.40625 C 23.5625 -46.40625 25.835938 -45.488281 27.078125 -43.65625 C 28.328125 -41.820312 28.554688 -39.101562 27.765625 -35.5 L 22.84375 -13.78125 C 21.800781 -9.207031 20.207031 -5.765625 18.0625 -3.453125 C 15.914062 -1.148438 12.972656 0 9.234375 0 L -3.25 0 Z M 9.609375 -8.21875 C 11.304688 -8.21875 12.351562 -9.046875 12.75 -10.703125 L 18.25 -34.640625 C 18.507812 -35.679688 18.609375 -36.460938 18.546875 -36.984375 C 18.492188 -37.503906 18.28125 -37.851562 17.90625 -38.03125 C 17.53125 -38.21875 16.890625 -38.3125 15.984375 -38.3125 L 14.953125 -38.3125 L 7.984375 -8.21875 Z M 9.609375 -8.21875 "/></g></g></g><g fill="#ffffff" fill-opacity="1"><g transform="translate(198.381765, 241.346461)"><g><path d="M 7.453125 -46.40625 L 21.71875 -46.40625 C 23.988281 -46.40625 25.625 -45.890625 26.625 -44.859375 C 27.632812 -43.835938 28.140625 -42.398438 28.140625 -40.546875 C 28.140625 -38.691406 27.816406 -36.320312 27.171875 -33.4375 C 26.554688 -30.8125 25.734375 -28.757812 24.703125 -27.28125 C 23.679688 -25.8125 22.253906 -24.785156 20.421875 -24.203125 C 21.753906 -23.921875 22.609375 -23.21875 22.984375 -22.09375 C 23.359375 -20.976562 23.332031 -19.46875 22.90625 -17.5625 L 18.734375 0 L 9.671875 0 L 13.828125 -18.15625 C 14.148438 -19.445312 14.09375 -20.273438 13.65625 -20.640625 C 13.226562 -21.003906 12.347656 -21.1875 11.015625 -21.1875 L 6.15625 0 L -3.25 0 Z M 15.171875 -29.234375 C 16.472656 -29.234375 17.445312 -30.632812 18.09375 -33.4375 C 18.382812 -34.664062 18.535156 -35.585938 18.546875 -36.203125 C 18.566406 -36.816406 18.457031 -37.238281 18.21875 -37.46875 C 17.988281 -37.707031 17.601562 -37.828125 17.0625 -37.828125 L 14.90625 -37.828125 L 12.953125 -29.234375 Z M 15.171875 -29.234375 "/></g></g></g><g fill="#ffffff" fill-opacity="1"><g transform="translate(224.150951, 241.346461)"><g><path d="M -3.6875 0 L 7.015625 -46.40625 L 15.984375 -46.40625 L 5.28125 0 Z M -3.6875 0 "/></g></g></g><g fill="#ffffff" fill-opacity="1"><g transform="translate(236.414268, 241.346461)"><g><path d="M 0.96875 0 L 5.9375 -46.46875 L 14.796875 -46.46875 L 10.921875 -14.859375 L 21.234375 -46.46875 L 30.09375 -46.46875 L 13.671875 0 Z M 0.96875 0 "/></g></g></g><g fill="#ffffff" fill-opacity="1"><g transform="translate(261.751257, 241.346461)"><g><path d="M -3.25 0 L 7.453125 -46.40625 L 26.03125 -46.40625 L 23.984375 -37.4375 L 14.84375 -37.4375 L 12.75 -28.421875 L 21.5 -28.421875 L 19.5 -19.671875 L 10.75 -19.671875 L 8.265625 -9.015625 L 17.984375 -9.015625 L 15.9375 0 Z M -3.25 0 "/></g></g></g><g fill="#ffffff" fill-opacity="1"><g transform="translate(171.220862, 264.674983)"><g><path d="M -1.234375 0 L 2.84375 -17.6875 L 9.921875 -17.6875 L 9.140625 -14.25 L 5.609375 -14.25 L 4.953125 -11.421875 L 8.296875 -11.421875 L 7.515625 -8.03125 L 4.171875 -8.03125 L 2.328125 0 Z M -1.234375 0 "/></g></g></g><g fill="#ffffff" fill-opacity="1"><g transform="translate(179.436232, 264.674983)"><g><path d="M -1.40625 0 L 2.671875 -17.6875 L 6.09375 -17.6875 L 2.015625 0 Z M -1.40625 0 "/></g></g></g><g fill="#ffffff" fill-opacity="1"><g transform="translate(184.110136, 264.674983)"><g><path d="M 0.265625 0 L 3.5625 -14.296875 L 1.46875 -14.296875 L 2.25 -17.6875 L 9.984375 -17.6875 L 9.203125 -14.296875 L 7.109375 -14.296875 L 3.8125 0 Z M 0.265625 0 "/></g></g></g><g fill="#ffffff" fill-opacity="1"><g transform="translate(192.26373, 264.674983)"><g><path d="M -1.234375 0 L 2.84375 -17.6875 L 6.484375 -17.6875 L 6.15625 -9.21875 L 8.109375 -17.6875 L 11.53125 -17.6875 L 7.453125 0 L 3.984375 0 L 4.265625 -8.859375 L 2.21875 0 Z M -1.234375 0 "/></g></g></g><g fill="#ffffff" fill-opacity="1"><g transform="translate(202.517498, 264.674983)"><g><path d="M -1.234375 0 L 2.84375 -17.6875 L 9.921875 -17.6875 L 9.140625 -14.265625 L 5.65625 -14.265625 L 4.859375 -10.828125 L 8.1875 -10.828125 L 7.421875 -7.5 L 4.09375 -7.5 L 3.140625 -3.4375 L 6.859375 -3.4375 L 6.0625 0 Z M -1.234375 0 "/></g></g></g><g fill="#ffffff" fill-opacity="1"><g transform="translate(211.000534, 264.674983)"><g><path d="M 2.921875 0.171875 C 1.316406 0.171875 0.25 -0.222656 -0.28125 -1.015625 C -0.8125 -1.816406 -0.867188 -3.101562 -0.453125 -4.875 L -0.0625 -6.609375 L 3.40625 -6.609375 L 2.90625 -4.40625 C 2.695312 -3.53125 2.875 -3.09375 3.4375 -3.09375 C 3.75 -3.09375 3.988281 -3.179688 4.15625 -3.359375 C 4.332031 -3.546875 4.46875 -3.859375 4.5625 -4.296875 C 4.695312 -4.878906 4.738281 -5.359375 4.6875 -5.734375 C 4.632812 -6.109375 4.53125 -6.421875 4.375 -6.671875 C 4.226562 -6.929688 3.941406 -7.328125 3.515625 -7.859375 L 2.34375 -9.390625 C 1.4375 -10.546875 1.140625 -11.820312 1.453125 -13.21875 C 1.796875 -14.726562 2.40625 -15.878906 3.28125 -16.671875 C 4.164062 -17.460938 5.273438 -17.859375 6.609375 -17.859375 C 8.203125 -17.859375 9.25 -17.4375 9.75 -16.59375 C 10.257812 -15.75 10.300781 -14.425781 9.875 -12.625 L 6.28125 -12.625 L 6.546875 -13.84375 C 6.597656 -14.070312 6.578125 -14.253906 6.484375 -14.390625 C 6.390625 -14.523438 6.222656 -14.59375 5.984375 -14.59375 C 5.710938 -14.59375 5.488281 -14.515625 5.3125 -14.359375 C 5.132812 -14.210938 5.015625 -14.007812 4.953125 -13.75 C 4.816406 -13.175781 5.007812 -12.582031 5.53125 -11.96875 L 7.140625 -9.984375 C 7.515625 -9.515625 7.8125 -9.070312 8.03125 -8.65625 C 8.25 -8.238281 8.390625 -7.742188 8.453125 -7.171875 C 8.515625 -6.609375 8.457031 -5.929688 8.28125 -5.140625 C 7.863281 -3.398438 7.234375 -2.078125 6.390625 -1.171875 C 5.546875 -0.273438 4.390625 0.171875 2.921875 0.171875 Z M 2.921875 0.171875 "/></g></g></g><g fill="#ffffff" fill-opacity="1"><g transform="translate(220.492469, 264.674983)"><g><path d="M 2.921875 0.171875 C 1.316406 0.171875 0.25 -0.222656 -0.28125 -1.015625 C -0.8125 -1.816406 -0.867188 -3.101562 -0.453125 -4.875 L -0.0625 -6.609375 L 3.40625 -6.609375 L 2.90625 -4.40625 C 2.695312 -3.53125 2.875 -3.09375 3.4375 -3.09375 C 3.75 -3.09375 3.988281 -3.179688 4.15625 -3.359375 C 4.332031 -3.546875 4.46875 -3.859375 4.5625 -4.296875 C 4.695312 -4.878906 4.738281 -5.359375 4.6875 -5.734375 C 4.632812 -6.109375 4.53125 -6.421875 4.375 -6.671875 C 4.226562 -6.929688 3.941406 -7.328125 3.515625 -7.859375 L 2.34375 -9.390625 C 1.4375 -10.546875 1.140625 -11.820312 1.453125 -13.21875 C 1.796875 -14.726562 2.40625 -15.878906 3.28125 -16.671875 C 4.164062 -17.460938 5.273438 -17.859375 6.609375 -17.859375 C 8.203125 -17.859375 9.25 -17.4375 9.75 -16.59375 C 10.257812 -15.75 10.300781 -14.425781 9.875 -12.625 L 6.28125 -12.625 L 6.546875 -13.84375 C 6.597656 -14.070312 6.578125 -14.253906 6.484375 -14.390625 C 6.390625 -14.523438 6.222656 -14.59375 5.984375 -14.59375 C 5.710938 -14.59375 5.488281 -14.515625 5.3125 -14.359375 C 5.132812 -14.210938 5.015625 -14.007812 4.953125 -13.75 C 4.816406 -13.175781 5.007812 -12.582031 5.53125 -11.96875 L 7.140625 -9.984375 C 7.515625 -9.515625 7.8125 -9.070312 8.03125 -8.65625 C 8.25 -8.238281 8.390625 -7.742188 8.453125 -7.171875 C 8.515625 -6.609375 8.457031 -5.929688 8.28125 -5.140625 C 7.863281 -3.398438 7.234375 -2.078125 6.390625 -1.171875 C 5.546875 -0.273438 4.390625 0.171875 2.921875 0.171875 Z M 2.921875 0.171875 "/></g></g></g><g fill="#ffffff" fill-opacity="1"><g transform="translate(229.984404, 264.674983)"><g/></g></g><g fill="#ffffff" fill-opacity="1"><g transform="translate(234.802435, 264.674983)"><g><path d="M 1.75 0.203125 C 0.6875 0.203125 -0.03125 -0.171875 -0.40625 -0.921875 C -0.78125 -1.679688 -0.832031 -2.664062 -0.5625 -3.875 C -0.25 -5.21875 0.191406 -6.296875 0.765625 -7.109375 C 1.347656 -7.929688 2.117188 -8.648438 3.078125 -9.265625 C 2.710938 -10.585938 2.640625 -11.726562 2.859375 -12.6875 C 3.085938 -13.6875 3.59375 -14.46875 4.375 -15.03125 C 5.164062 -15.601562 6.070312 -15.890625 7.09375 -15.890625 C 8.113281 -15.890625 8.882812 -15.617188 9.40625 -15.078125 C 9.9375 -14.535156 10.09375 -13.78125 9.875 -12.8125 C 9.550781 -11.382812 8.453125 -10.046875 6.578125 -8.796875 L 6.875 -7.296875 C 7.488281 -8.304688 8.242188 -9.09375 9.140625 -9.65625 L 10.046875 -7.46875 C 9.085938 -6.84375 8.1875 -5.800781 7.34375 -4.34375 L 8.125 0 L 4.71875 0 L 4.5625 -0.96875 C 4.195312 -0.625 3.765625 -0.34375 3.265625 -0.125 C 2.773438 0.09375 2.269531 0.203125 1.75 0.203125 Z M 6.421875 -11.34375 C 6.597656 -11.5 6.769531 -11.71875 6.9375 -12 C 7.113281 -12.28125 7.238281 -12.550781 7.3125 -12.8125 C 7.40625 -13.21875 7.253906 -13.421875 6.859375 -13.421875 C 6.691406 -13.421875 6.546875 -13.363281 6.421875 -13.25 C 6.296875 -13.132812 6.210938 -12.988281 6.171875 -12.8125 C 6.085938 -12.457031 6.101562 -11.90625 6.21875 -11.15625 Z M 2.90625 -2.375 C 3.164062 -2.375 3.40625 -2.472656 3.625 -2.671875 C 3.84375 -2.867188 4.015625 -3.097656 4.140625 -3.359375 L 3.578125 -6.28125 L 3.40625 -6.09375 C 3.269531 -5.925781 3.125 -5.664062 2.96875 -5.3125 C 2.820312 -4.957031 2.707031 -4.609375 2.625 -4.265625 L 2.609375 -4.15625 C 2.484375 -3.625 2.425781 -3.191406 2.4375 -2.859375 C 2.445312 -2.535156 2.601562 -2.375 2.90625 -2.375 Z M 2.90625 -2.375 "/></g></g></g><g fill="#ffffff" fill-opacity="1"><g transform="translate(245.20033, 264.674983)"><g/></g></g><g fill="#ffffff" fill-opacity="1"><g transform="translate(250.018361, 264.674983)"><g><path d="M 2.359375 0.171875 C 1.085938 0.171875 0.242188 -0.273438 -0.171875 -1.171875 C -0.597656 -2.078125 -0.597656 -3.441406 -0.171875 -5.265625 L 1.578125 -12.890625 C 1.960938 -14.523438 2.613281 -15.757812 3.53125 -16.59375 C 4.457031 -17.4375 5.640625 -17.859375 7.078125 -17.859375 C 8.242188 -17.859375 9.09375 -17.625 9.625 -17.15625 C 10.164062 -16.6875 10.457031 -16.003906 10.5 -15.109375 C 10.539062 -14.222656 10.398438 -13.078125 10.078125 -11.671875 L 6.625 -11.671875 L 7 -13.265625 C 7.09375 -13.691406 7.109375 -14.019531 7.046875 -14.25 C 6.984375 -14.476562 6.800781 -14.59375 6.5 -14.59375 C 5.832031 -14.59375 5.394531 -14.15625 5.1875 -13.28125 L 3.203125 -4.71875 C 3.078125 -4.175781 3.050781 -3.769531 3.125 -3.5 C 3.195312 -3.226562 3.40625 -3.09375 3.75 -3.09375 C 4.09375 -3.09375 4.363281 -3.226562 4.5625 -3.5 C 4.769531 -3.769531 4.9375 -4.175781 5.0625 -4.71875 L 5.640625 -7.25 L 4.6875 -7.25 L 5.390625 -10.296875 L 9.71875 -10.296875 L 7.34375 0 L 5.921875 0 L 5.65625 -1.484375 C 4.78125 -0.378906 3.679688 0.171875 2.359375 0.171875 Z M 2.359375 0.171875 "/></g></g></g><g fill="#ffffff" fill-opacity="1"><g transform="translate(260.004452, 264.674983)"><g><path d="M 0.890625 0 L 2.21875 -5.828125 L 2.140625 -17.6875 L 5.640625 -17.6875 L 5.25 -11.703125 L 7.625 -17.6875 L 11.125 -17.6875 L 5.5625 -5.828125 L 4.21875 0 Z M 0.890625 0 "/></g></g></g><g fill="#ffffff" fill-opacity="1"><g transform="translate(269.187546, 264.674983)"><g><path d="M -1.234375 0 L 2.84375 -17.6875 L 8.234375 -17.6875 L 7.21875 -6.90625 L 11.203125 -17.6875 L 16.640625 -17.6875 L 12.5625 0 L 9.328125 0 L 12.265625 -12.75 L 7.28125 0 L 4.109375 0 L 4.890625 -12.75 L 1.953125 0 Z M -1.234375 0 "/></g></g></g></svg>